# xmcd
#
# Track frame offsets: 
#        150
#        26195
#        53175
#        80408
#        109938
#        140490
#
# Disc length: 2073 seconds
#
# Revision: 6
# Processed by: cddbd v1.5.2PL0 Copyright (c) Steve Scherf et al.
# Submitted via: ExactAudioCopy v0.95b4
#
DISCID=4f081706
DTITLE=Sonny Rollins - Newk's Time
DYEAR=1957
DGENRE=Jazz
TTITLE0=Tune Up
TTITLE1=Asiatic Raes
TTITLE2=Wonderful! Wonderful!
TTITLE3=The Surrey with the Fringe on Top
TTITLE4=Blues for Philly Joe
TTITLE5=Namely You
EXTD=Newk's Time\n\n YEAR: 1957
EXTT0=
EXTT1=
EXTT2=
EXTT3=
EXTT4=
EXTT5=
PLAYORDER=
